<svg version="1.1" id="Layer_1" xmlns="http://www.w3.org/2000/svg" xmlns:xlink="http://www.w3.org/1999/xlink" x="0px" y="0px"
	 width="100%" viewBox="0 0 2172 724" enable-background="new 0 0 2172 724" xml:space="preserve">
<path fill="none" opacity="1.000000" stroke="none" 
	d="
M1356.000000,725.000000 
	C904.000000,725.000000 452.500000,725.000000 1.000000,725.000000 
	C1.000000,483.666656 1.000000,242.333328 1.000000,1.000000 
	C725.000000,1.000000 1449.000000,1.000000 2173.000000,1.000000 
	C2173.000000,242.333328 2173.000000,483.666656 2173.000000,725.000000 
	C1900.833374,725.000000 1628.666626,725.000000 1356.000000,725.000000 
M1582.617920,415.860718 
	C1583.134888,416.905731 1583.651733,417.950745 1584.255249,419.699615 
	C1585.673828,422.701263 1587.018066,425.740784 1588.523682,428.698212 
	C1596.588867,444.541168 1608.986572,454.273071 1627.155151,455.333252 
	C1635.104370,455.797119 1643.119873,456.036530 1651.058594,455.574524 
	C1666.110474,454.698700 1678.553955,448.343597 1685.974243,434.921234 
	C1691.820801,424.345123 1696.334839,413.032349 1701.890991,401.575989 
	C1702.618896,399.724213 1703.346802,397.872467 1704.542236,395.569336 
	C1704.804932,394.752747 1705.067749,393.936157 1705.818604,392.640472 
	C1707.671509,388.335815 1709.524414,384.031189 1711.912231,379.210938 
	C1712.435791,377.827606 1712.959473,376.444275 1713.921509,374.583038 
	C1714.657349,372.735199 1715.393188,370.887329 1716.595337,368.687561 
	C1716.761475,368.140045 1716.927612,367.592529 1717.619507,366.536438 
	C1719.155518,362.383209 1720.691650,358.229980 1722.880371,353.912903 
	C1723.827759,351.941803 1724.775024,349.970703 1726.113403,347.376709 
	C1726.873291,344.469482 1727.186646,341.342896 1728.484985,338.700134 
	C1731.304199,332.960846 1735.030518,327.652557 1737.673218,321.843781 
	C1749.180054,296.551147 1760.413086,271.134125 1771.801270,245.787338 
	C1773.066284,242.972046 1774.155762,239.238937 1778.208252,239.975693 
	C1782.689941,240.790451 1781.917847,244.794052 1781.973511,248.074234 
	C1781.979126,248.407150 1781.965088,248.740341 1781.965210,249.073410 
	C1781.984741,315.023315 1782.000366,380.973236 1782.030762,446.923157 
	C1782.034302,454.378052 1783.735474,456.171112 1791.005005,456.201263 
	C1803.495117,456.253082 1815.985596,456.214905 1828.475952,456.194305 
	C1834.845581,456.183777 1836.832764,454.288147 1836.835083,447.888336 
	C1836.858276,384.603210 1836.922852,321.317841 1836.699341,258.033539 
	C1836.681763,253.049332 1835.015015,247.927811 1833.371216,243.124557 
	C1830.578979,234.965652 1826.815063,227.131149 1824.184082,218.927872 
	C1822.218506,212.799332 1821.394531,206.304657 1820.171143,199.082092 
	C1819.535034,195.189941 1818.899048,191.297791 1818.151855,186.752960 
	C1815.903687,185.374619 1813.655396,183.996292 1811.358765,182.638840 
	C1811.358765,182.638840 1811.309204,182.656784 1810.996826,182.291336 
	C1810.679443,182.158463 1810.367432,182.169998 1809.141968,182.089172 
	C1801.760986,182.071136 1794.380005,182.053101 1786.089111,181.845810 
	C1782.059814,181.917770 1778.030518,181.989731 1773.090210,181.874329 
	C1770.759155,181.896210 1768.426636,181.875748 1766.097168,181.946793 
	C1749.869629,182.441483 1735.592529,193.030579 1730.749390,207.570602 
	C1728.635010,213.918411 1725.047485,219.766266 1722.271240,225.905563 
	C1719.346802,232.373001 1716.620605,238.929810 1713.754883,245.424225 
	C1711.361938,250.847397 1708.777832,256.188873 1706.490234,261.655151 
	C1704.375977,266.707062 1702.543335,271.876770 1700.057007,277.538757 
	C1699.215942,279.031982 1698.374878,280.525208 1697.118042,282.541840 
	C1696.780884,284.028320 1696.443604,285.514771 1695.728760,287.514465 
	C1695.297241,287.945770 1694.865601,288.377075 1693.994141,289.361633 
	C1692.560669,292.579529 1691.022095,295.755859 1689.727051,299.028564 
	C1688.699829,301.624817 1687.971069,304.339172 1686.818970,307.421112 
	C1686.667969,307.721527 1686.517090,308.021912 1685.981323,308.875488 
	C1683.688965,313.594330 1681.396729,318.313171 1678.584229,323.554626 
	C1677.800903,325.418365 1677.017700,327.282135 1675.856079,329.594818 
	C1670.976562,340.731445 1666.097168,351.868042 1660.782104,363.553375 
	C1660.196411,365.062012 1659.610718,366.570679 1658.552002,368.516174 
	C1658.313965,369.329742 1658.076050,370.143311 1657.377930,371.308075 
	C1657.249268,371.862946 1657.120605,372.417786 1656.634521,373.172485 
	C1656.403442,373.380432 1656.338989,373.631226 1656.026489,374.549561 
	C1654.736206,377.699524 1653.445801,380.849487 1651.728760,384.576691 
	C1650.217163,388.053467 1648.705688,391.530273 1646.757690,395.383667 
	C1646.491211,395.881409 1646.224854,396.379120 1645.386230,397.094818 
	C1644.187866,397.843170 1642.989624,398.591522 1641.055664,399.360931 
	C1639.366089,399.254883 1637.676636,399.148865 1635.546753,398.546783 
	C1633.721069,396.652710 1631.895386,394.758636 1629.887939,392.179504 
	C1628.824341,389.789429 1627.760742,387.399353 1626.609619,384.321960 
	C1625.442017,381.809052 1624.274536,379.296143 1623.059204,376.058105 
	C1606.451538,337.375122 1589.789062,298.715515 1573.260620,259.998749 
	C1565.740601,242.383774 1558.379883,224.698853 1551.143066,206.965591 
	C1544.944946,191.777481 1534.023682,182.830078 1517.528809,182.070709 
	C1504.058105,181.450531 1490.522217,181.440979 1477.045532,181.955688 
	C1459.096802,182.641205 1446.015503,193.809311 1442.321167,210.992828 
	C1441.348999,215.514816 1440.961670,220.244629 1440.955200,224.879898 
	C1440.851929,299.377136 1440.848877,373.874481 1440.841064,448.371826 
	C1440.840454,454.230835 1442.805786,456.209625 1448.562256,456.219330 
	C1461.228394,456.240723 1473.894653,456.241364 1486.560669,456.195557 
	C1494.535278,456.166687 1496.209839,454.479218 1496.211792,446.528107 
	C1496.227539,380.030487 1496.236694,313.532898 1496.212158,247.035309 
	C1496.210938,243.868973 1496.350098,240.617233 1499.916504,239.703354 
	C1503.587036,238.762741 1505.129150,241.733902 1506.402832,244.546082 
	C1519.666016,273.831268 1532.980225,303.093567 1546.159180,332.416748 
	C1553.867920,349.568512 1561.357910,366.818665 1568.987427,384.758270 
	C1573.477051,394.897552 1577.966553,405.036835 1582.617920,415.860718 
M816.330139,604.269531 
	C816.330139,600.489441 816.330139,596.709351 816.330139,592.424927 
	C801.655029,592.424927 787.439636,592.424927 773.231201,592.424927 
	C773.231201,585.689148 773.231201,579.483826 773.231201,572.795837 
	C785.868896,572.795837 798.090576,572.795837 810.307251,572.795837 
	C810.307251,568.233826 810.307251,564.175232 810.307251,559.668274 
	C797.696167,559.668274 785.442688,559.668274 773.146362,559.668274 
	C773.146362,553.651123 773.146362,548.099426 773.146362,542.139343 
	C787.434875,542.139343 801.372314,542.139343 815.277588,542.139343 
	C815.277588,537.497314 815.277588,533.281189 815.277588,529.001648 
	C795.605774,529.001648 776.313599,529.001648 756.348450,529.001648 
	C756.348450,554.454956 756.348450,579.724731 756.273193,605.850037 
	C757.053711,606.084595 757.833801,606.522095 758.614868,606.523865 
	C776.938232,606.566101 795.261719,606.581543 813.584778,606.500427 
	C814.430298,606.496704 815.271606,605.549744 816.330139,604.269531 
M1004.897156,415.894958 
	C1005.082703,413.761658 1005.429810,411.628387 1005.430237,409.495056 
	C1005.445312,338.459930 1005.431519,267.424774 1005.400757,196.389633 
	C1005.399292,192.910904 1005.206238,189.432251 1005.181213,185.210617 
	C1003.994080,181.458099 1001.281006,180.157059 997.529053,180.177063 
	C984.533325,180.246368 971.536804,180.178192 958.541199,180.260284 
	C953.569824,180.291687 950.831238,182.958801 950.448242,187.845612 
	C950.344360,189.170639 950.421143,190.510132 950.421692,191.842972 
	C950.448975,256.823883 950.476929,321.804779 950.505493,386.785706 
	C950.507019,390.304443 950.938599,394.244202 946.491211,395.430786 
	C942.379272,396.527893 940.685120,393.013611 938.777161,390.364838 
	C928.460510,376.042480 918.101135,361.749573 907.921326,347.330170 
	C873.247192,298.215240 838.617310,249.068970 804.030273,199.892654 
	C796.670654,189.428574 786.612976,183.000015 774.076233,182.274216 
	C758.804993,181.390106 743.416443,181.474716 728.130615,182.214905 
	C714.454346,182.877121 704.381104,190.037170 700.197144,203.417953 
	C697.988525,210.481201 696.278687,218.045563 696.248657,225.391434 
	C695.947327,299.201996 696.035156,373.014191 696.036255,446.825928 
	C696.036316,452.963776 698.330078,455.266479 704.438354,455.278137 
	C717.267700,455.302582 730.097290,455.214539 742.926636,455.228912 
	C751.276001,455.238281 752.924316,453.713989 752.924316,445.470581 
	C752.924438,384.488586 752.906799,323.506592 752.898682,262.524597 
	C752.897888,256.693298 752.633362,250.838654 753.099976,245.043884 
	C753.254883,243.120331 754.967529,240.387253 756.612000,239.786163 
	C758.200378,239.205551 760.840942,240.552399 762.603088,241.694672 
	C764.047791,242.631180 764.909546,244.490433 765.981323,245.975601 
	C810.517883,307.692230 855.113525,369.366425 899.531982,431.167969 
	C909.719849,445.342896 922.736267,453.876465 940.522034,454.113647 
	C950.182739,454.242462 959.904724,454.846375 969.487671,453.989349 
	C976.136169,453.394806 983.233765,451.837799 989.006470,448.665161 
	C1001.437622,441.833008 1005.262390,430.054474 1004.897156,415.894958 
M320.115021,251.724838 
	C319.376740,256.661652 318.123535,261.584229 317.986633,266.537628 
	C317.278076,292.171906 316.211151,317.823303 316.578613,343.449921 
	C316.792297,358.351257 318.291595,373.457703 321.276550,388.049622 
	C327.658386,419.247009 345.954742,440.531036 377.620880,448.143982 
	C390.007355,451.121887 402.871094,453.414551 415.555573,453.615692 
	C458.030548,454.289154 500.525299,454.132172 543.006470,453.701141 
	C553.585388,453.593842 564.291748,451.974762 574.676880,449.797699 
	C595.456482,445.441681 613.914734,436.802002 625.685059,417.830811 
	C633.490662,405.249939 638.124878,391.303772 638.722168,376.768219 
	C640.013733,345.336792 640.317505,313.853790 640.430115,282.389709 
	C640.484497,267.188904 637.889709,252.211716 633.054688,237.695526 
	C624.726562,212.692322 608.620850,195.831421 582.788574,188.692566 
	C566.616821,184.223419 550.185547,182.004150 533.464172,181.953690 
	C498.306824,181.847580 463.142151,181.496567 427.994659,182.087402 
	C413.583405,182.329651 399.057709,183.889725 384.854828,186.388840 
	C366.295746,189.654449 349.524109,197.207306 337.195129,212.383820 
	C328.026062,223.670563 323.404205,236.952576 320.115021,251.724838 
M1069.580566,400.039978 
	C1061.589478,415.396576 1053.553833,430.730255 1045.627686,446.120270 
	C1042.108276,452.953705 1044.106201,456.218842 1051.702881,456.239471 
	C1066.696533,456.280182 1081.693237,456.084106 1096.682739,456.339233 
	C1102.289551,456.434631 1105.612915,454.194061 1108.049316,449.295502 
	C1115.904053,433.502533 1124.088257,417.873505 1131.945679,402.081848 
	C1133.407227,399.144501 1135.038574,398.013916 1138.393921,398.021484 
	C1188.373901,398.133942 1238.354248,398.146667 1288.334106,398.001343 
	C1292.313232,397.989777 1294.282104,399.419525 1295.918335,402.836823 
	C1303.388672,418.437714 1311.126709,433.910095 1318.646973,449.487396 
	C1320.811768,453.971649 1323.745117,456.387054 1329.076660,456.311249 
	C1344.067017,456.098083 1359.063110,456.327698 1374.057007,456.305084 
	C1382.150024,456.292847 1384.331787,452.788055 1380.813110,445.643311 
	C1354.844116,392.912201 1328.679565,340.276276 1302.977173,287.415588 
	C1290.178589,261.093628 1278.065918,234.432999 1265.952393,207.784973 
	C1259.862427,194.387772 1250.275879,185.095322 1235.733765,182.874100 
	C1225.328125,181.284683 1214.487183,180.926941 1204.001465,181.849350 
	C1187.286621,183.319748 1175.378052,192.629593 1168.298096,207.945663 
	C1166.691162,211.422165 1165.024658,214.874741 1163.270264,218.278976 
	C1132.161743,278.648529 1101.035278,339.008850 1069.580566,400.039978 
M1995.975220,96.564629 
	C1963.078003,76.847198 1929.096680,75.031807 1895.772583,93.863953 
	C1861.354614,113.314171 1843.029541,144.118896 1843.602661,183.832870 
	C1844.178467,223.721848 1863.848389,253.440445 1899.253174,271.395050 
	C1957.444092,300.905090 2027.024902,266.558411 2040.977783,202.526123 
	C2050.004395,161.101974 2032.306519,120.555260 1995.975220,96.564629 
M1330.696899,592.727539 
	C1327.899170,588.636719 1325.101440,584.545898 1322.137695,580.212280 
	C1324.000732,579.113037 1325.570312,578.234253 1327.092896,577.280212 
	C1332.845581,573.675659 1336.756226,568.757690 1338.176147,561.975952 
	C1341.964966,543.880615 1331.203613,529.659607 1312.517334,528.956482 
	C1299.554077,528.468750 1286.556030,528.896301 1273.573730,528.948303 
	C1273.146851,528.950012 1272.721680,529.317078 1272.388794,529.470886 
	C1272.388794,555.146606 1272.388794,580.674072 1272.388794,606.379395 
	C1277.853394,606.379395 1282.930542,606.379395 1288.582275,606.379395 
	C1288.582275,598.379028 1288.582275,590.656982 1288.582275,582.352722 
	C1293.602295,582.352722 1298.084351,582.077148 1302.502930,582.486450 
	C1304.307007,582.653564 1306.573608,583.885925 1307.597534,585.353821 
	C1311.684326,591.212341 1315.324707,597.380371 1319.229858,603.368958 
	C1320.000488,604.550842 1321.167969,606.279968 1322.225708,606.334534 
	C1327.922485,606.628418 1333.642212,606.473511 1340.145386,606.473511 
	C1336.737549,601.524475 1333.915039,597.425415 1330.696899,592.727539 
M1145.513916,537.591797 
	C1145.508667,544.583252 1145.558960,551.575317 1145.482666,558.565979 
	C1145.408203,565.382996 1145.737305,572.262878 1144.924561,578.998840 
	C1143.861572,587.810974 1137.975220,592.448486 1128.779297,592.938782 
	C1119.452637,593.436096 1112.819580,589.179749 1110.912109,580.528564 
	C1109.854126,575.730591 1109.924805,570.637878 1109.870117,565.673767 
	C1109.736694,553.562744 1109.826660,541.449219 1109.826660,529.096863 
	C1103.814819,529.096863 1098.418091,529.096863 1092.852539,529.096863 
	C1092.852539,544.948547 1092.306030,560.599792 1092.992676,576.196777 
	C1093.828491,595.180969 1104.816162,605.950134 1123.746948,607.830261 
	C1143.797119,609.821655 1160.280762,599.102722 1161.739624,581.034180 
	C1163.125732,563.867920 1162.037964,546.501953 1162.037964,529.026184 
	C1156.689819,529.026184 1151.410767,529.026184 1145.510132,529.026184 
	C1145.510132,531.693359 1145.510132,534.159973 1145.513916,537.591797 
M650.499573,576.150757 
	C647.522339,567.258179 639.847778,564.316772 631.997131,561.756226 
	C626.314819,559.902893 620.470642,558.545532 614.788269,556.692505 
	C611.407349,555.589966 609.008850,553.298218 609.145142,549.347412 
	C609.286926,545.236450 611.856506,542.746643 615.503052,542.043274 
	C619.183350,541.333557 623.263123,540.759399 626.790588,541.638916 
	C632.312927,543.015991 637.517761,545.666077 643.382812,547.984863 
	C645.445068,544.698547 647.860840,540.848755 650.433167,536.749573 
	C636.983948,527.789978 623.145447,525.012817 608.156189,529.792908 
	C602.476624,531.604126 597.643616,534.846680 594.608887,540.207336 
	C588.703674,550.638611 592.128601,563.121216 603.125183,568.078735 
	C611.100830,571.674377 619.776184,573.696045 628.069153,576.619202 
	C632.006348,578.006897 635.445862,580.311768 635.076721,585.179016 
	C634.704590,590.085449 631.107361,592.224854 626.849792,593.385986 
	C625.267212,593.817688 623.572937,593.945374 621.922180,594.004211 
	C612.327454,594.346375 604.118652,590.727966 596.671448,584.516174 
	C593.798645,588.601013 591.174072,592.332886 588.485046,596.156433 
	C601.262512,606.654602 615.297913,609.879639 630.655701,606.991150 
	C646.214233,604.064758 653.750305,592.444824 650.499573,576.150757 
M980.247009,548.902344 
	C983.156860,546.181946 986.066772,543.461609 988.962952,540.754028 
	C974.612976,523.526489 945.515686,522.993958 928.891602,539.431213 
	C912.810730,555.331116 914.041748,583.123901 931.497131,598.260315 
	C948.072083,612.632996 976.777893,610.667664 989.159485,593.908813 
	C985.665649,590.736511 982.112976,587.510803 978.370361,584.112610 
	C977.237244,585.098450 975.922729,586.331360 974.517090,587.449890 
	C968.275024,592.417358 961.207764,594.164734 953.407593,592.506714 
	C942.984558,590.291016 936.379089,582.632751 934.391663,570.687134 
	C932.705933,560.554321 937.503540,549.713928 945.835815,544.829041 
	C954.152222,539.953430 966.187988,540.842651 974.135559,546.727051 
	C975.768250,547.935913 977.852844,548.534302 980.247009,548.902344 
M1784.199829,557.713928 
	C1783.567505,558.581299 1782.935303,559.448669 1781.991089,560.744019 
	C1780.667114,558.694275 1779.647705,557.218628 1778.731934,555.681213 
	C1773.968750,547.684998 1769.311401,539.623779 1764.406494,531.715881 
	C1763.602905,530.420227 1761.797974,529.058838 1760.371216,528.960938 
	C1755.445557,528.623047 1750.482544,528.830811 1744.969482,528.830811 
	C1745.612427,530.055237 1745.928345,530.771179 1746.341064,531.426392 
	C1754.669189,544.648193 1763.108643,557.801819 1771.252319,571.136108 
	C1772.704956,573.514526 1773.534180,576.617004 1773.626953,579.419189 
	C1773.923218,588.351624 1773.736816,597.300049 1773.736816,606.264832 
	C1779.533569,606.264832 1784.767334,606.264832 1790.418579,606.264832 
	C1790.418579,600.840576 1790.926514,595.652588 1790.315552,590.599915 
	C1788.934448,579.178589 1792.545898,569.790710 1799.389526,560.694702 
	C1806.824951,550.811890 1813.001099,539.981628 1820.174927,528.869812 
	C1814.173096,528.869812 1809.058350,528.689697 1803.972900,528.996033 
	C1802.695679,529.072937 1801.117310,530.459778 1800.349243,531.670715 
	C1795.008911,540.090881 1789.845825,548.623413 1784.199829,557.713928 
M1601.727905,564.499634 
	C1601.727905,578.435608 1601.727905,592.371643 1601.727905,606.259399 
	C1607.386475,606.259399 1612.479736,606.259399 1617.960815,606.259399 
	C1617.960815,584.830444 1617.960815,563.724060 1617.960815,542.079224 
	C1626.400513,542.079224 1634.450562,542.079224 1642.484131,542.079224 
	C1642.484131,537.429626 1642.484131,533.327209 1642.484131,529.159607 
	C1620.667358,529.159607 1599.129517,529.159607 1577.421387,529.159607 
	C1577.421387,533.618408 1577.421387,537.718872 1577.421387,542.468018 
	C1585.508789,542.468018 1593.408203,542.468018 1601.730103,542.468018 
	C1601.730103,549.908386 1601.730103,556.703979 1601.727905,564.499634 
M1448.423828,594.477173 
	C1448.423828,598.400696 1448.423828,602.324158 1448.423828,606.383179 
	C1454.255981,606.383179 1459.349731,606.383179 1464.624390,606.383179 
	C1464.624390,580.427551 1464.624390,554.758789 1464.624390,529.187622 
	C1459.049438,529.187622 1453.819458,529.187622 1448.421387,529.187622 
	C1448.421387,550.865051 1448.421387,572.174438 1448.423828,594.477173 
M376.791229,567.901306 
	C376.254974,568.404602 375.269867,568.893860 375.253571,569.413574 
	C375.125366,573.499817 375.182434,577.591919 375.182434,581.706543 
	C386.560638,581.706543 397.409973,581.706543 408.408691,581.706543 
	C408.408691,576.968140 408.408691,572.576599 408.408691,567.876587 
	C397.958099,567.876587 387.849426,567.876587 376.791229,567.901306 
z"/>
<path fill="#267BFD" opacity="1.000000" stroke="none" 
	d="
M320.209595,251.313080 
	C323.404205,236.952576 328.026062,223.670563 337.195129,212.383820 
	C349.524109,197.207306 366.295746,189.654449 384.854828,186.388840 
	C399.057709,183.889725 413.583405,182.329651 427.994659,182.087402 
	C463.142151,181.496567 498.306824,181.847580 533.464172,181.953690 
	C550.185547,182.004150 566.616821,184.223419 582.788574,188.692566 
	C608.620850,195.831421 624.726562,212.692322 633.054688,237.695526 
	C637.889709,252.211716 640.484497,267.188904 640.430115,282.389709 
	C640.317505,313.853790 640.013733,345.336792 638.722168,376.768219 
	C638.124878,391.303772 633.490662,405.249939 625.685059,417.830811 
	C613.914734,436.802002 595.456482,445.441681 574.676880,449.797699 
	C564.291748,451.974762 553.585388,453.593842 543.006470,453.701141 
	C500.525299,454.132172 458.030548,454.289154 415.555573,453.615692 
	C402.871094,453.414551 390.007355,451.121887 377.620880,448.143982 
	C345.954742,440.531036 327.658386,419.247009 321.276550,388.049622 
	C318.291595,373.457703 316.792297,358.351257 316.578613,343.449921 
	C316.211151,317.823303 317.278076,292.171906 317.986633,266.537628 
	C318.123535,261.584229 319.376740,256.661652 320.209595,251.313080 
M390.701050,390.837799 
	C396.826813,396.100342 404.000092,399.126038 411.936279,400.007019 
	C420.697754,400.979614 429.507812,401.997650 438.304932,402.076324 
	C467.128082,402.333984 495.958344,402.421814 524.778381,402.027008 
	C533.696045,401.904907 542.713806,400.635864 551.467529,398.832703 
	C567.827454,395.462769 577.638489,385.107147 580.845398,368.658386 
	C581.418152,365.720886 582.058289,362.734863 582.094666,359.764221 
	C582.396790,335.118195 582.758179,310.469635 582.640564,285.824036 
	C582.609863,279.394897 581.275696,272.909485 579.987976,266.561951 
	C577.373291,253.674255 570.077271,244.094910 557.365845,240.302429 
	C548.218689,237.573349 538.539429,235.508789 529.044800,235.273071 
	C500.569153,234.566162 472.067352,234.806091 443.576385,234.890472 
	C435.263580,234.915085 426.924438,235.351456 418.646545,236.125336 
	C392.026672,238.613968 377.017609,252.873260 376.207642,278.237610 
	C375.379120,304.181976 375.605316,330.186523 376.280304,356.141083 
	C376.612335,368.908966 379.865295,381.268219 390.701050,390.837799 
z"/>
<path fill="#E32D25" opacity="1.000000" stroke="none" 
	d="
M1004.103088,416.385742 
	C1005.262390,430.054474 1001.437622,441.833008 989.006470,448.665161 
	C983.233765,451.837799 976.136169,453.394806 969.487671,453.989349 
	C959.904724,454.846375 950.182739,454.242462 940.522034,454.113647 
	C922.736267,453.876465 909.719849,445.342896 899.531982,431.167969 
	C855.113525,369.366425 810.517883,307.692230 765.981323,245.975601 
	C764.909546,244.490433 764.047791,242.631180 762.603088,241.694672 
	C760.840942,240.552399 758.200378,239.205551 756.612000,239.786163 
	C754.967529,240.387253 753.254883,243.120331 753.099976,245.043884 
	C752.633362,250.838654 752.897888,256.693298 752.898682,262.524597 
	C752.906799,323.506592 752.924438,384.488586 752.924316,445.470581 
	C752.924316,453.713989 751.276001,455.238281 742.926636,455.228912 
	C730.097290,455.214539 717.267700,455.302582 704.438354,455.278137 
	C698.330078,455.266479 696.036316,452.963776 696.036255,446.825928 
	C696.035156,373.014191 695.947327,299.201996 696.248657,225.391434 
	C696.278687,218.045563 697.988525,210.481201 700.197144,203.417953 
	C704.381104,190.037170 714.454346,182.877121 728.130615,182.214905 
	C743.416443,181.474716 758.804993,181.390106 774.076233,182.274216 
	C786.612976,183.000015 796.670654,189.428574 804.030273,199.892654 
	C838.617310,249.068970 873.247192,298.215240 907.921326,347.330170 
	C918.101135,361.749573 928.460510,376.042480 938.777161,390.364838 
	C940.685120,393.013611 942.379272,396.527893 946.491211,395.430786 
	C950.938599,394.244202 950.507019,390.304443 950.505493,386.785706 
	C950.476929,321.804779 950.448975,256.823883 950.421692,191.842972 
	C950.421143,190.510132 950.344360,189.170639 950.448242,187.845612 
	C950.831238,182.958801 953.569824,180.291687 958.541199,180.260284 
	C971.536804,180.178192 984.533325,180.246368 997.529053,180.177063 
	C1001.281006,180.157059 1003.994080,181.458099 1004.825073,185.865387 
	C1004.311157,188.324844 1004.017883,190.129395 1004.016113,191.934235 
	C1003.986877,221.594849 1003.980835,251.255524 1003.996826,280.916168 
	C1004.021179,326.072693 1004.066589,371.229218 1004.103088,416.385742 
z"/>
<path fill="#F2AF04" opacity="1.000000" stroke="none" 
	d="
M1069.746582,399.705566 
	C1101.035278,339.008850 1132.161743,278.648529 1163.270264,218.278976 
	C1165.024658,214.874741 1166.691162,211.422165 1168.298096,207.945663 
	C1175.378052,192.629593 1187.286621,183.319748 1204.001465,181.849350 
	C1214.487183,180.926941 1225.328125,181.284683 1235.733765,182.874100 
	C1250.275879,185.095322 1259.862427,194.387772 1265.952393,207.784973 
	C1278.065918,234.432999 1290.178589,261.093628 1302.977173,287.415588 
	C1328.679565,340.276276 1354.844116,392.912201 1380.813110,445.643311 
	C1384.331787,452.788055 1382.150024,456.292847 1374.057007,456.305084 
	C1359.063110,456.327698 1344.067017,456.098083 1329.076660,456.311249 
	C1323.745117,456.387054 1320.811768,453.971649 1318.646973,449.487396 
	C1311.126709,433.910095 1303.388672,418.437714 1295.918335,402.836823 
	C1294.282104,399.419525 1292.313232,397.989777 1288.334106,398.001343 
	C1238.354248,398.146667 1188.373901,398.133942 1138.393921,398.021484 
	C1135.038574,398.013916 1133.407227,399.144501 1131.945679,402.081848 
	C1124.088257,417.873505 1115.904053,433.502533 1108.049316,449.295502 
	C1105.612915,454.194061 1102.289551,456.434631 1096.682739,456.339233 
	C1081.693237,456.084106 1066.696533,456.280182 1051.702881,456.239471 
	C1044.106201,456.218842 1042.108276,452.953705 1045.627686,446.120270 
	C1053.553833,430.730255 1061.589478,415.396576 1069.746582,399.705566 
M1262.449341,353.003448 
	C1265.657227,353.003448 1268.864990,353.003448 1272.594238,353.003448 
	C1271.831055,350.880463 1271.536987,349.767365 1271.048706,348.747314 
	C1254.384399,313.934021 1237.756470,279.102966 1220.891479,244.387085 
	C1219.828735,242.199081 1216.671753,239.351776 1214.889771,239.607132 
	C1212.575684,239.938705 1209.883179,242.684875 1208.695435,245.062164 
	C1191.502808,279.473297 1174.531616,313.995117 1157.528442,348.500824 
	C1156.910889,349.753815 1156.508911,351.112976 1155.783569,353.003784 
	C1191.520630,353.003784 1226.493042,353.003784 1262.449341,353.003448 
z"/>
<path fill="#039E4F" opacity="1.000000" stroke="none" 
	d="
M1568.946411,384.024536 
	C1561.357910,366.818665 1553.867920,349.568512 1546.159180,332.416748 
	C1532.980225,303.093567 1519.666016,273.831268 1506.402832,244.546082 
	C1505.129150,241.733902 1503.587036,238.762741 1499.916504,239.703354 
	C1496.350098,240.617233 1496.210938,243.868973 1496.212158,247.035309 
	C1496.236694,313.532898 1496.227539,380.030487 1496.211792,446.528107 
	C1496.209839,454.479218 1494.535278,456.166687 1486.560669,456.195557 
	C1473.894653,456.241364 1461.228394,456.240723 1448.562256,456.219330 
	C1442.805786,456.209625 1440.840454,454.230835 1440.841064,448.371826 
	C1440.848877,373.874481 1440.851929,299.377136 1440.955200,224.879898 
	C1440.961670,220.244629 1441.348999,215.514816 1442.321167,210.992828 
	C1446.015503,193.809311 1459.096802,182.641205 1477.045532,181.955688 
	C1490.522217,181.440979 1504.058105,181.450531 1517.528809,182.070709 
	C1534.023682,182.830078 1544.944946,191.777481 1551.143066,206.965591 
	C1558.379883,224.698853 1565.740601,242.383774 1573.260620,259.998749 
	C1589.789062,298.715515 1606.451538,337.375122 1622.834717,376.669922 
	C1620.136963,377.189301 1617.648560,376.896637 1615.197021,377.085022 
	C1613.882080,377.186096 1611.539917,378.101898 1611.533447,378.671112 
	C1611.499878,381.648987 1611.035645,385.534546 1612.668335,387.401917 
	C1615.038574,390.112885 1618.852417,389.790558 1622.012939,387.011108 
	C1623.224243,385.945679 1625.115601,385.653687 1626.697144,385.009277 
	C1627.760742,387.399353 1628.824341,389.789429 1629.783569,392.815125 
	C1626.675537,394.953430 1623.766724,396.705994 1620.642700,397.891724 
	C1617.198242,399.199158 1613.556030,399.986298 1609.640625,401.036896 
	C1605.022827,402.935364 1600.529053,404.480591 1597.538696,409.718811 
	C1604.747559,410.266266 1611.439697,403.909668 1618.206787,410.468933 
	C1614.900635,413.118317 1611.930908,415.961426 1608.489136,418.012329 
	C1607.233765,418.760345 1603.745483,418.248871 1603.177734,417.240906 
	C1600.414429,412.334503 1595.227295,412.073029 1590.600098,410.000793 
	C1589.133423,410.000275 1588.066650,410.000122 1586.810425,409.756042 
	C1585.413940,409.674835 1584.206909,409.837616 1582.717285,409.786255 
	C1580.627808,406.862823 1580.289429,404.706390 1583.556396,402.463806 
	C1585.061646,401.430450 1585.466431,398.793823 1586.370239,396.884216 
	C1585.881348,396.557037 1585.392456,396.229858 1584.903564,395.902679 
	C1583.415771,396.505707 1581.935913,397.550934 1580.437500,397.578278 
	C1579.132568,397.602051 1577.012085,396.788391 1576.626709,395.805634 
	C1574.909302,391.427155 1573.685547,386.855133 1572.115479,381.813934 
	C1570.906128,382.657501 1569.926270,383.341003 1568.946411,384.024536 
z"/>
<path fill="#049E50" opacity="1.000000" stroke="none" 
	d="
M1716.128906,369.039459 
	C1715.393188,370.887329 1714.657349,372.735199 1713.280273,374.806610 
	C1708.175415,375.509430 1710.812012,377.896240 1711.377197,379.726501 
	C1709.524414,384.031189 1707.671509,388.335815 1705.187256,392.851685 
	C1703.511353,393.609436 1702.466797,394.155975 1701.422241,394.702515 
	C1702.306396,395.141907 1703.190552,395.581299 1704.074707,396.020691 
	C1703.346802,397.872467 1702.618896,399.724213 1701.237305,401.795990 
	C1691.223633,401.826080 1696.950806,395.346466 1696.696533,391.796997 
	C1694.467896,392.617828 1692.644409,393.617798 1690.709961,393.930328 
	C1687.174561,394.501465 1683.573608,394.665955 1680.054199,394.651154 
	C1683.887451,392.810852 1687.666260,391.319366 1691.568604,389.779205 
	C1685.467651,387.688354 1676.360840,388.930725 1671.349731,391.902740 
	C1670.016357,392.693604 1667.807129,392.007843 1666.212646,391.734192 
	C1667.684082,390.716705 1669.422974,390.263123 1670.110107,389.156525 
	C1672.031128,386.063263 1674.181763,385.128967 1677.949219,385.795441 
	C1681.414551,386.408478 1685.140381,385.548798 1689.227051,385.310150 
	C1687.907837,383.199799 1686.904663,381.594910 1685.901367,379.990021 
	C1686.198242,379.450165 1686.495239,378.910278 1686.792114,378.370422 
	C1692.066284,379.349915 1697.340454,380.329407 1702.614624,381.308899 
	C1702.156494,379.720551 1701.238159,378.654266 1700.097656,377.944977 
	C1698.299438,376.826782 1695.952637,376.338593 1694.542969,374.895233 
	C1690.359009,370.611389 1684.800903,372.496857 1679.969482,371.262024 
	C1679.211304,371.068207 1677.583008,372.155792 1677.188599,373.027252 
	C1675.442017,376.886200 1672.759766,376.135712 1669.700195,375.093658 
	C1666.165283,373.889679 1659.838745,377.337677 1657.791382,380.426666 
	C1656.669556,382.119232 1654.082031,382.840332 1652.155396,383.999451 
	C1653.445801,380.849487 1654.736206,377.699524 1656.370850,374.108154 
	C1656.869751,373.460175 1656.961914,373.228821 1656.991943,372.972626 
	C1657.120605,372.417786 1657.249268,371.862946 1657.898071,370.967224 
	C1658.620483,369.777374 1658.822754,368.928375 1659.025024,368.079346 
	C1659.610718,366.570679 1660.196411,365.062012 1661.364868,363.285950 
	C1663.669556,364.304932 1665.838379,365.277802 1667.011353,366.949432 
	C1668.881104,369.613647 1670.513794,369.369720 1672.757446,367.721466 
	C1676.118408,365.252625 1679.458862,362.724365 1683.017212,360.566223 
	C1685.814575,358.869598 1687.992065,357.236847 1686.392944,353.398682 
	C1685.775024,353.273285 1685.110229,353.235687 1684.525024,353.000275 
	C1683.129639,352.438965 1681.771729,351.784302 1680.398682,351.167358 
	C1681.655518,350.431519 1682.829834,349.377594 1684.186279,349.025452 
	C1687.103516,348.268127 1687.873779,346.187439 1686.323853,344.276184 
	C1685.007202,342.652588 1682.505127,341.397614 1680.391479,341.152100 
	C1677.231934,340.785126 1675.581421,339.756836 1675.447632,336.550659 
	C1678.621338,336.550659 1682.386719,337.667358 1684.194702,336.263428 
	C1686.378174,334.567688 1686.902588,330.735565 1687.927856,328.336365 
	C1683.666504,328.631378 1679.950562,328.888641 1676.234497,329.145905 
	C1677.017700,327.282135 1677.800903,325.418365 1679.204590,323.290222 
	C1682.074219,323.529266 1684.127441,324.257416 1685.645508,321.270172 
	C1686.262207,320.056702 1688.583008,319.629974 1690.193481,319.016571 
	C1694.069336,317.540314 1697.983643,316.165222 1701.824585,314.770355 
	C1696.132080,312.395874 1691.249023,310.359070 1686.366211,308.322266 
	C1686.517090,308.021912 1686.667969,307.721527 1687.383423,307.210999 
	C1695.730957,309.874084 1701.718872,305.816284 1708.366943,301.411591 
	C1705.731201,298.995789 1700.713135,297.563354 1703.309326,293.201782 
	C1700.098511,291.612396 1697.266235,290.210388 1694.433960,288.808411 
	C1694.865601,288.377075 1695.297241,287.945770 1696.356201,287.257416 
	C1699.904663,286.377136 1703.592163,288.614990 1706.453979,283.829041 
	C1703.092896,283.146820 1700.313354,282.582611 1697.533936,282.018433 
	C1698.374878,280.525208 1699.215942,279.031982 1700.501709,277.667664 
	C1703.399170,278.387024 1707.158691,280.264404 1708.071167,279.337952 
	C1711.446899,275.910156 1714.519043,271.847290 1716.513794,267.478973 
	C1719.093628,261.829620 1720.298950,255.828888 1726.917114,252.714340 
	C1729.679199,251.414429 1730.704590,246.933701 1734.600708,246.152435 
	C1734.814453,246.109558 1735.067993,244.832382 1734.853516,244.316513 
	C1733.305176,240.590881 1736.075684,239.330872 1738.430542,237.800995 
	C1739.594971,237.044525 1740.743896,236.264359 1741.050049,236.060593 
	C1739.973999,232.983139 1737.968384,230.127426 1738.709106,228.633469 
	C1739.627930,226.780563 1742.821045,226.055237 1745.162598,224.771072 
	C1744.711914,223.869812 1744.576294,223.073502 1744.111572,222.749237 
	C1738.716797,218.985382 1739.556641,214.024399 1741.580078,209.007111 
	C1743.291016,204.764206 1747.294800,205.215363 1750.907349,204.945007 
	C1754.030273,204.711304 1757.276489,204.766281 1760.223755,203.880554 
	C1764.054565,202.729340 1767.659058,200.807785 1771.331055,199.151489 
	C1773.532227,198.158539 1775.580688,196.721710 1777.863281,196.033066 
	C1786.370239,193.466461 1795.048584,191.426193 1803.440186,188.541473 
	C1806.422119,187.516357 1808.769897,184.645935 1811.407227,182.617920 
	C1813.655396,183.996292 1815.903687,185.374619 1818.018799,187.426178 
	C1810.889404,190.793457 1803.832886,193.345856 1796.938232,196.278564 
	C1795.158813,197.035477 1792.713379,198.954712 1792.673706,200.397781 
	C1792.621460,202.294342 1794.314209,204.643723 1795.927612,205.999878 
	C1796.664917,206.619522 1799.023804,205.384308 1800.616699,204.891983 
	C1802.472900,204.318237 1804.258911,203.482010 1806.140625,203.032730 
	C1810.761353,201.929337 1815.419312,200.982681 1820.062378,199.972961 
	C1821.394531,206.304657 1822.218506,212.799332 1824.184082,218.927872 
	C1826.815063,227.131149 1830.578979,234.965652 1833.371216,243.124557 
	C1835.015015,247.927811 1836.681763,253.049332 1836.699341,258.033539 
	C1836.922852,321.317841 1836.858276,384.603210 1836.835083,447.888336 
	C1836.832764,454.288147 1834.845581,456.183777 1828.475952,456.194305 
	C1815.985596,456.214905 1803.495117,456.253082 1791.005005,456.201263 
	C1783.735474,456.171112 1782.034302,454.378052 1782.030762,446.923157 
	C1782.000366,380.973236 1781.984741,315.023315 1781.965210,249.073410 
	C1781.965088,248.740341 1781.979126,248.407150 1781.973511,248.074234 
	C1781.917847,244.794052 1782.689941,240.790451 1778.208252,239.975693 
	C1774.155762,239.238937 1773.066284,242.972046 1771.801270,245.787338 
	C1760.413086,271.134125 1749.180054,296.551147 1737.673218,321.843781 
	C1735.030518,327.652557 1731.304199,332.960846 1728.484985,338.700134 
	C1727.186646,341.342896 1726.873291,344.469482 1725.584961,347.768616 
	C1723.800293,348.810089 1722.465210,349.346344 1721.313965,350.146973 
	C1720.475708,350.729980 1719.880127,351.662079 1719.176514,352.438599 
	C1720.193604,352.984650 1721.210693,353.530701 1722.227783,354.076782 
	C1720.691650,358.229980 1719.155518,362.383209 1717.066528,366.592529 
	C1713.971802,365.041077 1711.429932,363.433563 1708.888184,361.826050 
	C1708.555786,362.347290 1708.223389,362.868561 1707.890991,363.389801 
	C1709.652588,366.524902 1712.602295,368.148987 1716.128906,369.039459 
M1696.671021,348.185883 
	C1694.814941,348.985077 1692.958862,349.784302 1691.102783,350.583496 
	C1691.114990,351.028870 1691.127197,351.474243 1691.139526,351.919617 
	C1693.073364,352.716064 1695.007324,353.512512 1698.002808,354.746185 
	C1697.712280,351.872345 1697.541138,350.179047 1696.671021,348.185883 
z"/>
<path fill="#087EA0" opacity="1.000000" stroke="none" 
	d="
M1996.288086,96.747116 
	C2032.306519,120.555260 2050.004395,161.101974 2040.977783,202.526123 
	C2027.024902,266.558411 1957.444092,300.905090 1899.253174,271.395050 
	C1863.848389,253.440445 1844.178467,223.721848 1843.602661,183.832870 
	C1843.029541,144.118896 1861.354614,113.314171 1895.772583,93.863953 
	C1929.096680,75.031807 1963.078003,76.847198 1996.288086,96.747116 
M1995.877686,247.418823 
	C2037.379028,212.593887 2037.651123,150.868500 1996.632324,116.351936 
	C1969.487915,93.510246 1926.532227,90.253021 1894.092285,113.659416 
	C1864.932373,134.699173 1851.580200,175.991882 1863.957275,209.815643 
	C1883.989990,264.560730 1950.096924,283.711945 1995.877686,247.418823 
z"/>
<path fill="#05A052" opacity="1.000000" stroke="none" 
	d="
M1680.000000,395.000000 
	C1683.573608,394.665955 1687.174561,394.501465 1690.709961,393.930328 
	C1692.644409,393.617798 1694.467896,392.617828 1696.696533,391.796997 
	C1696.950806,395.346466 1691.223633,401.826080 1701.012207,402.031372 
	C1696.334839,413.032349 1691.820801,424.345123 1685.974243,434.921234 
	C1678.553955,448.343597 1666.110474,454.698700 1651.058594,455.574524 
	C1643.119873,456.036530 1635.104370,455.797119 1627.155151,455.333252 
	C1608.986572,454.273071 1596.588867,444.541168 1588.523682,428.698212 
	C1587.018066,425.740784 1585.673828,422.701263 1584.418579,419.344177 
	C1584.581909,418.988708 1584.995117,418.973999 1585.397705,418.981689 
	C1588.659180,417.654327 1591.518066,416.319244 1594.897095,414.741241 
	C1598.744507,416.798553 1596.043213,419.984314 1594.643555,423.035950 
	C1593.828857,423.233948 1593.156128,423.259308 1592.950317,423.582336 
	C1592.152954,424.833466 1591.504395,426.179413 1590.800293,427.490051 
	C1592.127441,427.593079 1593.463867,427.842987 1594.779053,427.759277 
	C1596.196411,427.669067 1597.593872,427.266388 1599.386230,426.954651 
	C1601.057983,426.603912 1602.443604,426.509247 1603.610840,425.955078 
	C1607.730713,423.999420 1613.331055,422.925720 1615.537842,419.624481 
	C1620.734497,411.850555 1626.715942,406.649384 1636.260376,405.870575 
	C1638.652222,405.675415 1641.853394,405.123169 1643.115723,403.509338 
	C1645.700195,400.205261 1648.930176,400.316956 1652.313477,399.984253 
	C1654.883057,399.731567 1657.438354,399.333405 1660.375000,399.000000 
	C1661.500000,399.000000 1662.250000,399.000000 1663.279053,399.288635 
	C1669.376099,401.219513 1674.050537,399.253510 1678.333252,395.000000 
	C1679.111084,395.000000 1679.555542,395.000000 1680.000000,395.000000 
z"/>
<path fill="#082869" opacity="1.000000" stroke="none" 
	d="
M1330.894775,593.026978 
	C1333.915039,597.425415 1336.737549,601.524475 1340.145386,606.473511 
	C1333.642212,606.473511 1327.922485,606.628418 1322.225708,606.334534 
	C1321.167969,606.279968 1320.000488,604.550842 1319.229858,603.368958 
	C1315.324707,597.380371 1311.684326,591.212341 1307.597534,585.353821 
	C1306.573608,583.885925 1304.307007,582.653564 1302.502930,582.486450 
	C1298.084351,582.077148 1293.602295,582.352722 1288.582275,582.352722 
	C1288.582275,590.656982 1288.582275,598.379028 1288.582275,606.379395 
	C1282.930542,606.379395 1277.853394,606.379395 1272.388794,606.379395 
	C1272.388794,580.674072 1272.388794,555.146606 1272.388794,529.470886 
	C1272.721680,529.317078 1273.146851,528.950012 1273.573730,528.948303 
	C1286.556030,528.896301 1299.554077,528.468750 1312.517334,528.956482 
	C1331.203613,529.659607 1341.964966,543.880615 1338.176147,561.975952 
	C1336.756226,568.757690 1332.845581,573.675659 1327.092896,577.280212 
	C1325.570312,578.234253 1324.000732,579.113037 1322.137695,580.212280 
	C1325.101440,584.545898 1327.899170,588.636719 1330.894775,593.026978 
M1304.339844,542.304810 
	C1299.246216,542.304810 1294.152466,542.304810 1288.969971,542.304810 
	C1288.969971,551.612427 1288.969971,560.158386 1288.969971,568.898499 
	C1296.286255,568.898499 1303.260864,569.277832 1310.175659,568.797302 
	C1317.884399,568.261658 1322.397461,562.759766 1322.355591,555.048950 
	C1322.316650,547.878967 1318.004761,543.335876 1310.263916,542.424744 
	C1308.621826,542.231506 1306.945435,542.331665 1304.339844,542.304810 
z"/>
<path fill="#072668" opacity="1.000000" stroke="none" 
	d="
M1145.511963,537.109192 
	C1145.510132,534.159973 1145.510132,531.693359 1145.510132,529.026184 
	C1151.410767,529.026184 1156.689819,529.026184 1162.037964,529.026184 
	C1162.037964,546.501953 1163.125732,563.867920 1161.739624,581.034180 
	C1160.280762,599.102722 1143.797119,609.821655 1123.746948,607.830261 
	C1104.816162,605.950134 1093.828491,595.180969 1092.992676,576.196777 
	C1092.306030,560.599792 1092.852539,544.948547 1092.852539,529.096863 
	C1098.418091,529.096863 1103.814819,529.096863 1109.826660,529.096863 
	C1109.826660,541.449219 1109.736694,553.562744 1109.870117,565.673767 
	C1109.924805,570.637878 1109.854126,575.730591 1110.912109,580.528564 
	C1112.819580,589.179749 1119.452637,593.436096 1128.779297,592.938782 
	C1137.975220,592.448486 1143.861572,587.810974 1144.924561,578.998840 
	C1145.737305,572.262878 1145.408203,565.382996 1145.482666,558.565979 
	C1145.558960,551.575317 1145.508667,544.583252 1145.511963,537.109192 
z"/>
<path fill="#062769" opacity="1.000000" stroke="none" 
	d="
M756.348450,604.994507 
	C756.348450,579.724731 756.348450,554.454956 756.348450,529.001648 
	C776.313599,529.001648 795.605774,529.001648 815.277588,529.001648 
	C815.277588,533.281189 815.277588,537.497314 815.277588,542.139343 
	C801.372314,542.139343 787.434875,542.139343 773.146362,542.139343 
	C773.146362,548.099426 773.146362,553.651123 773.146362,559.668274 
	C785.442688,559.668274 797.696167,559.668274 810.307251,559.668274 
	C810.307251,564.175232 810.307251,568.233826 810.307251,572.795837 
	C798.090576,572.795837 785.868896,572.795837 773.231201,572.795837 
	C773.231201,579.483826 773.231201,585.689148 773.231201,592.424927 
	C787.439636,592.424927 801.655029,592.424927 816.330139,592.424927 
	C816.330139,596.709351 816.330139,600.489441 815.746460,604.643066 
	C795.558044,605.009277 775.953247,605.001892 756.348450,604.994507 
z"/>
<path fill="#08276A" opacity="1.000000" stroke="none" 
	d="
M650.615967,576.532410 
	C653.750305,592.444824 646.214233,604.064758 630.655701,606.991150 
	C615.297913,609.879639 601.262512,606.654602 588.485046,596.156433 
	C591.174072,592.332886 593.798645,588.601013 596.671448,584.516174 
	C604.118652,590.727966 612.327454,594.346375 621.922180,594.004211 
	C623.572937,593.945374 625.267212,593.817688 626.849792,593.385986 
	C631.107361,592.224854 634.704590,590.085449 635.076721,585.179016 
	C635.445862,580.311768 632.006348,578.006897 628.069153,576.619202 
	C619.776184,573.696045 611.100830,571.674377 603.125183,568.078735 
	C592.128601,563.121216 588.703674,550.638611 594.608887,540.207336 
	C597.643616,534.846680 602.476624,531.604126 608.156189,529.792908 
	C623.145447,525.012817 636.983948,527.789978 650.433167,536.749573 
	C647.860840,540.848755 645.445068,544.698547 643.382812,547.984863 
	C637.517761,545.666077 632.312927,543.015991 626.790588,541.638916 
	C623.263123,540.759399 619.183350,541.333557 615.503052,542.043274 
	C611.856506,542.746643 609.286926,545.236450 609.145142,549.347412 
	C609.008850,553.298218 611.407349,555.589966 614.788269,556.692505 
	C620.470642,558.545532 626.314819,559.902893 631.997131,561.756226 
	C639.847778,564.316772 647.522339,567.258179 650.615967,576.532410 
z"/>
<path fill="#072668" opacity="1.000000" stroke="none" 
	d="
M979.988098,549.158203 
	C977.852844,548.534302 975.768250,547.935913 974.135559,546.727051 
	C966.187988,540.842651 954.152222,539.953430 945.835815,544.829041 
	C937.503540,549.713928 932.705933,560.554321 934.391663,570.687134 
	C936.379089,582.632751 942.984558,590.291016 953.407593,592.506714 
	C961.207764,594.164734 968.275024,592.417358 974.517090,587.449890 
	C975.922729,586.331360 977.237244,585.098450 978.370361,584.112610 
	C982.112976,587.510803 985.665649,590.736511 989.159485,593.908813 
	C976.777893,610.667664 948.072083,612.632996 931.497131,598.260315 
	C914.041748,583.123901 912.810730,555.331116 928.891602,539.431213 
	C945.515686,522.993958 974.612976,523.526489 988.962952,540.754028 
	C986.066772,543.461609 983.156860,546.181946 979.988098,549.158203 
z"/>
<path fill="#05A052" opacity="1.000000" stroke="none" 
	d="
M1811.383057,182.628372 
	C1808.769897,184.645935 1806.422119,187.516357 1803.440186,188.541473 
	C1795.048584,191.426193 1786.370239,193.466461 1777.863281,196.033066 
	C1775.580688,196.721710 1773.532227,198.158539 1771.331055,199.151489 
	C1767.659058,200.807785 1764.054565,202.729340 1760.223755,203.880554 
	C1757.276489,204.766281 1754.030273,204.711304 1750.907349,204.945007 
	C1747.294800,205.215363 1743.291016,204.764206 1741.580078,209.007111 
	C1739.556641,214.024399 1738.716797,218.985382 1744.111572,222.749237 
	C1744.576294,223.073502 1744.711914,223.869812 1745.162598,224.771072 
	C1742.821045,226.055237 1739.627930,226.780563 1738.709106,228.633469 
	C1737.968384,230.127426 1739.973999,232.983139 1741.050049,236.060593 
	C1740.743896,236.264359 1739.594971,237.044525 1738.430542,237.800995 
	C1736.075684,239.330872 1733.305176,240.590881 1734.853516,244.316513 
	C1735.067993,244.832382 1734.814453,246.109558 1734.600708,246.152435 
	C1730.704590,246.933701 1729.679199,251.414429 1726.917114,252.714340 
	C1720.298950,255.828888 1719.093628,261.829620 1716.513794,267.478973 
	C1714.519043,271.847290 1711.446899,275.910156 1708.071167,279.337952 
	C1707.158691,280.264404 1703.399170,278.387024 1700.766602,277.395569 
	C1702.543335,271.876770 1704.375977,266.707062 1706.490234,261.655151 
	C1708.777832,256.188873 1711.361938,250.847397 1713.754883,245.424225 
	C1716.620605,238.929810 1719.346802,232.373001 1722.271240,225.905563 
	C1725.047485,219.766266 1728.635010,213.918411 1730.749390,207.570602 
	C1735.592529,193.030579 1749.869629,182.441483 1766.097168,181.946793 
	C1768.426636,181.875748 1770.759155,181.896210 1773.602295,182.352783 
	C1777.722656,186.360138 1784.062012,185.968399 1786.999023,182.035049 
	C1794.380005,182.053101 1801.760986,182.071136 1809.772705,182.365417 
	C1810.403320,182.641647 1810.854248,182.767700 1810.854248,182.767700 
	C1810.854248,182.767700 1811.309204,182.656784 1811.309204,182.656784 
	C1811.309204,182.656784 1811.358765,182.638840 1811.383057,182.628372 
z"/>
<path fill="#072668" opacity="1.000000" stroke="none" 
	d="
M1784.412842,557.416870 
	C1789.845825,548.623413 1795.008911,540.090881 1800.349243,531.670715 
	C1801.117310,530.459778 1802.695679,529.072937 1803.972900,528.996033 
	C1809.058350,528.689697 1814.173096,528.869812 1820.174927,528.869812 
	C1813.001099,539.981628 1806.824951,550.811890 1799.389526,560.694702 
	C1792.545898,569.790710 1788.934448,579.178589 1790.315552,590.599915 
	C1790.926514,595.652588 1790.418579,600.840576 1790.418579,606.264832 
	C1784.767334,606.264832 1779.533569,606.264832 1773.736816,606.264832 
	C1773.736816,597.300049 1773.923218,588.351624 1773.626953,579.419189 
	C1773.534180,576.617004 1772.704956,573.514526 1771.252319,571.136108 
	C1763.108643,557.801819 1754.669189,544.648193 1746.341064,531.426392 
	C1745.928345,530.771179 1745.612427,530.055237 1744.969482,528.830811 
	C1750.482544,528.830811 1755.445557,528.623047 1760.371216,528.960938 
	C1761.797974,529.058838 1763.602905,530.420227 1764.406494,531.715881 
	C1769.311401,539.623779 1773.968750,547.684998 1778.731934,555.681213 
	C1779.647705,557.218628 1780.667114,558.694275 1781.991089,560.744019 
	C1782.935303,559.448669 1783.567505,558.581299 1784.412842,557.416870 
z"/>
<path fill="#072668" opacity="1.000000" stroke="none" 
	d="
M1601.729004,563.999634 
	C1601.730103,556.703979 1601.730103,549.908386 1601.730103,542.468018 
	C1593.408203,542.468018 1585.508789,542.468018 1577.421387,542.468018 
	C1577.421387,537.718872 1577.421387,533.618408 1577.421387,529.159607 
	C1599.129517,529.159607 1620.667358,529.159607 1642.484131,529.159607 
	C1642.484131,533.327209 1642.484131,537.429626 1642.484131,542.079224 
	C1634.450562,542.079224 1626.400513,542.079224 1617.960815,542.079224 
	C1617.960815,563.724060 1617.960815,584.830444 1617.960815,606.259399 
	C1612.479736,606.259399 1607.386475,606.259399 1601.727905,606.259399 
	C1601.727905,592.371643 1601.727905,578.435608 1601.729004,563.999634 
z"/>
<path fill="#0D2B6A" opacity="1.000000" stroke="none" 
	d="
M1448.422607,593.980469 
	C1448.421387,572.174438 1448.421387,550.865051 1448.421387,529.187622 
	C1453.819458,529.187622 1459.049438,529.187622 1464.624390,529.187622 
	C1464.624390,554.758789 1464.624390,580.427551 1464.624390,606.383179 
	C1459.349731,606.383179 1454.255981,606.383179 1448.423828,606.383179 
	C1448.423828,602.324158 1448.423828,598.400696 1448.422607,593.980469 
z"/>
<path fill="#05A052" opacity="1.000000" stroke="none" 
	d="
M1651.942139,384.288086 
	C1654.082031,382.840332 1656.669556,382.119232 1657.791382,380.426666 
	C1659.838745,377.337677 1666.165283,373.889679 1669.700195,375.093658 
	C1672.759766,376.135712 1675.442017,376.886200 1677.188599,373.027252 
	C1677.583008,372.155792 1679.211304,371.068207 1679.969482,371.262024 
	C1684.800903,372.496857 1690.359009,370.611389 1694.542969,374.895233 
	C1695.952637,376.338593 1698.299438,376.826782 1700.097656,377.944977 
	C1701.238159,378.654266 1702.156494,379.720551 1702.614624,381.308899 
	C1697.340454,380.329407 1692.066284,379.349915 1686.792114,378.370422 
	C1686.495239,378.910278 1686.198242,379.450165 1685.901367,379.990021 
	C1686.904663,381.594910 1687.907837,383.199799 1689.227051,385.310150 
	C1685.140381,385.548798 1681.414551,386.408478 1677.949219,385.795441 
	C1674.181763,385.128967 1672.031128,386.063263 1670.110107,389.156525 
	C1669.422974,390.263123 1667.684082,390.716705 1665.827026,391.779144 
	C1659.217163,393.062317 1653.205688,394.034698 1647.194092,395.007080 
	C1648.705688,391.530273 1650.217163,388.053467 1651.942139,384.288086 
z"/>
<path fill="#05A052" opacity="1.000000" stroke="none" 
	d="
M1676.045288,329.370361 
	C1679.950562,328.888641 1683.666504,328.631378 1687.927856,328.336365 
	C1686.902588,330.735565 1686.378174,334.567688 1684.194702,336.263428 
	C1682.386719,337.667358 1678.621338,336.550659 1675.447632,336.550659 
	C1675.581421,339.756836 1677.231934,340.785126 1680.391479,341.152100 
	C1682.505127,341.397614 1685.007202,342.652588 1686.323853,344.276184 
	C1687.873779,346.187439 1687.103516,348.268127 1684.186279,349.025452 
	C1682.829834,349.377594 1681.655518,350.431519 1680.398682,351.167358 
	C1681.771729,351.784302 1683.129639,352.438965 1684.525024,353.000275 
	C1685.110229,353.235687 1685.775024,353.273285 1686.392944,353.398682 
	C1687.992065,357.236847 1685.814575,358.869598 1683.017212,360.566223 
	C1679.458862,362.724365 1676.118408,365.252625 1672.757446,367.721466 
	C1670.513794,369.369720 1668.881104,369.613647 1667.011353,366.949432 
	C1665.838379,365.277802 1663.669556,364.304932 1661.582642,363.011597 
	C1666.097168,351.868042 1670.976562,340.731445 1676.045288,329.370361 
z"/>
<path fill="#049E50" opacity="1.000000" stroke="none" 
	d="
M1595.000000,423.000000 
	C1596.043213,419.984314 1598.744507,416.798553 1594.897095,414.741241 
	C1591.518066,416.319244 1588.659180,417.654327 1585.366211,418.639252 
	C1584.619873,417.191681 1584.307495,416.094269 1583.996094,414.624207 
	C1583.664795,412.834473 1583.332397,411.417389 1583.000000,410.000366 
	C1584.206909,409.837616 1585.413940,409.674835 1586.871582,410.102417 
	C1588.809326,412.674347 1590.159058,412.764191 1591.000000,410.001221 
	C1595.227295,412.073029 1600.414429,412.334503 1603.177734,417.240906 
	C1603.745483,418.248871 1607.233765,418.760345 1608.489136,418.012329 
	C1611.930908,415.961426 1614.900635,413.118317 1618.206787,410.468933 
	C1611.439697,403.909668 1604.747559,410.266266 1597.538696,409.718811 
	C1600.529053,404.480591 1605.022827,402.935364 1609.649658,401.415100 
	C1610.847046,402.600128 1611.535645,403.922089 1612.526489,404.212311 
	C1621.007935,406.696442 1628.338501,402.383240 1636.077637,400.381439 
	C1638.526123,402.225922 1640.921387,403.808563 1641.791382,399.339905 
	C1642.989624,398.591522 1644.187866,397.843170 1645.743164,397.360718 
	C1647.203003,397.868530 1648.295776,398.239746 1649.411011,398.328522 
	C1652.936035,398.609161 1656.469727,398.784149 1660.000000,399.000000 
	C1657.438354,399.333405 1654.883057,399.731567 1652.313477,399.984253 
	C1648.930176,400.316956 1645.700195,400.205261 1643.115723,403.509338 
	C1641.853394,405.123169 1638.652222,405.675415 1636.260376,405.870575 
	C1626.715942,406.649384 1620.734497,411.850555 1615.537842,419.624481 
	C1613.331055,422.925720 1607.730713,423.999420 1603.610840,425.955078 
	C1602.443604,426.509247 1601.057983,426.603912 1599.442139,426.607117 
	C1600.715820,424.984589 1602.320068,423.664276 1603.924316,422.343933 
	C1603.672363,421.779388 1603.420410,421.214844 1603.168457,420.650330 
	C1600.445557,421.433533 1597.722778,422.216766 1595.000000,423.000000 
z"/>
<path fill="#08276A" opacity="1.000000" stroke="none" 
	d="
M377.265991,567.888916 
	C387.849426,567.876587 397.958099,567.876587 408.408691,567.876587 
	C408.408691,572.576599 408.408691,576.968140 408.408691,581.706543 
	C397.409973,581.706543 386.560638,581.706543 375.182434,581.706543 
	C375.182434,577.591919 375.125366,573.499817 375.253571,569.413574 
	C375.269867,568.893860 376.254974,568.404602 377.265991,567.888916 
z"/>
<path fill="#05A052" opacity="1.000000" stroke="none" 
	d="
M1820.116699,199.527527 
	C1815.419312,200.982681 1810.761353,201.929337 1806.140625,203.032730 
	C1804.258911,203.482010 1802.472900,204.318237 1800.616699,204.891983 
	C1799.023804,205.384308 1796.664917,206.619522 1795.927612,205.999878 
	C1794.314209,204.643723 1792.621460,202.294342 1792.673706,200.397781 
	C1792.713379,198.954712 1795.158813,197.035477 1796.938232,196.278564 
	C1803.832886,193.345856 1810.889404,190.793457 1818.074219,187.752533 
	C1818.899048,191.297791 1819.535034,195.189941 1820.116699,199.527527 
z"/>
<path fill="#05A052" opacity="1.000000" stroke="none" 
	d="
M1694.214111,289.085022 
	C1697.266235,290.210388 1700.098511,291.612396 1703.309326,293.201782 
	C1700.713135,297.563354 1705.731201,298.995789 1708.366943,301.411591 
	C1701.718872,305.816284 1695.730957,309.874084 1687.528809,307.000977 
	C1687.971069,304.339172 1688.699829,301.624817 1689.727051,299.028564 
	C1691.022095,295.755859 1692.560669,292.579529 1694.214111,289.085022 
z"/>
<path fill="#E61C0D" opacity="1.000000" stroke="none" 
	d="
M1004.500122,416.140350 
	C1004.066589,371.229218 1004.021179,326.072693 1003.996826,280.916168 
	C1003.980835,251.255524 1003.986877,221.594849 1004.016113,191.934235 
	C1004.017883,190.129395 1004.311157,188.324844 1004.785645,186.236862 
	C1005.206238,189.432251 1005.399292,192.910904 1005.400757,196.389633 
	C1005.431519,267.424774 1005.445312,338.459930 1005.430237,409.495056 
	C1005.429810,411.628387 1005.082703,413.761658 1004.500122,416.140350 
z"/>
<path fill="#039E4F" opacity="1.000000" stroke="none" 
	d="
M1660.375000,399.000000 
	C1656.469727,398.784149 1652.936035,398.609161 1649.411011,398.328522 
	C1648.295776,398.239746 1647.203003,397.868530 1646.029175,397.251709 
	C1646.224854,396.379120 1646.491211,395.881409 1646.975830,395.195374 
	C1653.205688,394.034698 1659.217163,393.062317 1665.614380,392.044983 
	C1667.807129,392.007843 1670.016357,392.693604 1671.349731,391.902740 
	C1676.360840,388.930725 1685.467651,387.688354 1691.568604,389.779205 
	C1687.666260,391.319366 1683.887451,392.810852 1680.054199,394.651154 
	C1679.555542,395.000000 1679.111084,395.000000 1678.117554,394.734802 
	C1672.712280,395.979736 1667.856201,397.489868 1663.000000,399.000000 
	C1662.250000,399.000000 1661.500000,399.000000 1660.375000,399.000000 
z"/>
<path fill="#05A052" opacity="1.000000" stroke="none" 
	d="
M1635.995117,400.003479 
	C1628.338501,402.383240 1621.007935,406.696442 1612.526489,404.212311 
	C1611.535645,403.922089 1610.847046,402.600128 1610.009033,401.378296 
	C1613.556030,399.986298 1617.198242,399.199158 1620.642700,397.891724 
	C1623.766724,396.705994 1626.675537,394.953430 1629.874512,393.157654 
	C1631.895386,394.758636 1633.721069,396.652710 1635.771240,399.034973 
	C1635.995605,399.523132 1635.995117,400.003479 1635.995117,400.003479 
z"/>
<path fill="#05A052" opacity="1.000000" stroke="none" 
	d="
M1626.653320,384.665619 
	C1625.115601,385.653687 1623.224243,385.945679 1622.012939,387.011108 
	C1618.852417,389.790558 1615.038574,390.112885 1612.668335,387.401917 
	C1611.035645,385.534546 1611.499878,381.648987 1611.533447,378.671112 
	C1611.539917,378.101898 1613.882080,377.186096 1615.197021,377.085022 
	C1617.648560,376.896637 1620.136963,377.189301 1622.858643,377.032501 
	C1624.274536,379.296143 1625.442017,381.809052 1626.653320,384.665619 
z"/>
<path fill="#05A052" opacity="1.000000" stroke="none" 
	d="
M1686.173706,308.598877 
	C1691.249023,310.359070 1696.132080,312.395874 1701.824585,314.770355 
	C1697.983643,316.165222 1694.069336,317.540314 1690.193481,319.016571 
	C1688.583008,319.629974 1686.262207,320.056702 1685.645508,321.270172 
	C1684.127441,324.257416 1682.074219,323.529266 1679.464722,323.028870 
	C1681.396729,318.313171 1683.688965,313.594330 1686.173706,308.598877 
z"/>
<path fill="#05A052" opacity="1.000000" stroke="none" 
	d="
M1582.717285,409.786224 
	C1583.332397,411.417389 1583.664795,412.834473 1583.610596,414.663422 
	C1582.968262,415.108887 1582.712158,415.142517 1582.456055,415.176147 
	C1577.966553,405.036835 1573.477051,394.897552 1568.966919,384.391388 
	C1569.926270,383.341003 1570.906128,382.657501 1572.115479,381.813934 
	C1573.685547,386.855133 1574.909302,391.427155 1576.626709,395.805634 
	C1577.012085,396.788391 1579.132568,397.602051 1580.437500,397.578278 
	C1581.935913,397.550934 1583.415771,396.505707 1584.903564,395.902679 
	C1585.392456,396.229858 1585.881348,396.557037 1586.370239,396.884216 
	C1585.466431,398.793823 1585.061646,401.430450 1583.556396,402.463806 
	C1580.289429,404.706390 1580.627808,406.862823 1582.717285,409.786224 
z"/>
<path fill="#072668" opacity="1.000000" stroke="none" 
	d="
M756.310791,605.422241 
	C775.953247,605.001892 795.558044,605.009277 815.638855,605.029358 
	C815.271606,605.549744 814.430298,606.496704 813.584778,606.500427 
	C795.261719,606.581543 776.938232,606.566101 758.614868,606.523865 
	C757.833801,606.522095 757.053711,606.084595 756.310791,605.422241 
z"/>
<path fill="#05A052" opacity="1.000000" stroke="none" 
	d="
M1697.325928,282.280121 
	C1700.313354,282.582611 1703.092896,283.146820 1706.453979,283.829041 
	C1703.592163,288.614990 1699.904663,286.377136 1696.544922,287.000793 
	C1696.443604,285.514771 1696.780884,284.028320 1697.325928,282.280121 
z"/>
<path fill="#039E4F" opacity="1.000000" stroke="none" 
	d="
M1786.544067,181.940430 
	C1784.062012,185.968399 1777.722656,186.360138 1774.057861,182.446472 
	C1778.030518,181.989731 1782.059814,181.917770 1786.544067,181.940430 
z"/>
<path fill="#05A052" opacity="1.000000" stroke="none" 
	d="
M1716.362061,368.863525 
	C1712.602295,368.148987 1709.652588,366.524902 1707.890991,363.389801 
	C1708.223389,362.868561 1708.555786,362.347290 1708.888184,361.826050 
	C1711.429932,363.433563 1713.971802,365.041077 1716.803589,366.846802 
	C1716.927612,367.592529 1716.761475,368.140045 1716.362061,368.863525 
z"/>
<path fill="#05A052" opacity="1.000000" stroke="none" 
	d="
M1722.554077,353.994843 
	C1721.210693,353.530701 1720.193604,352.984650 1719.176514,352.438599 
	C1719.880127,351.662079 1720.475708,350.729980 1721.313965,350.146973 
	C1722.465210,349.346344 1723.800293,348.810089 1725.389526,348.080078 
	C1724.775024,349.970703 1723.827759,351.941803 1722.554077,353.994843 
z"/>
<path fill="#039E4F" opacity="1.000000" stroke="none" 
	d="
M1636.077637,400.381439 
	C1635.995117,400.003479 1635.995605,399.523132 1635.991333,399.282990 
	C1637.676636,399.148865 1639.366089,399.254883 1641.423584,399.350433 
	C1640.921387,403.808563 1638.526123,402.225922 1636.077637,400.381439 
z"/>
<path fill="#05A052" opacity="1.000000" stroke="none" 
	d="
M1704.308472,395.795013 
	C1703.190552,395.581299 1702.306396,395.141907 1701.422241,394.702515 
	C1702.466797,394.155975 1703.511353,393.609436 1704.943237,393.091248 
	C1705.067749,393.936157 1704.804932,394.752747 1704.308472,395.795013 
z"/>
<path fill="#05A052" opacity="1.000000" stroke="none" 
	d="
M1711.644775,379.468719 
	C1710.812012,377.896240 1708.175415,375.509430 1713.061035,375.045532 
	C1712.959473,376.444275 1712.435791,377.827606 1711.644775,379.468719 
z"/>
<path fill="#039E4F" opacity="1.000000" stroke="none" 
	d="
M1582.536987,415.518433 
	C1582.712158,415.142517 1582.968262,415.108887 1583.609619,415.036072 
	C1584.307495,416.094269 1584.619873,417.191681 1584.963623,418.631531 
	C1584.995117,418.973999 1584.581909,418.988708 1584.375244,418.992218 
	C1583.651733,417.950745 1583.134888,416.905731 1582.536987,415.518433 
z"/>
<path fill="#05A052" opacity="1.000000" stroke="none" 
	d="
M1658.788574,368.297760 
	C1658.822754,368.928375 1658.620483,369.777374 1658.128174,370.791626 
	C1658.076050,370.143311 1658.313965,369.329742 1658.788574,368.297760 
z"/>
<path fill="#05A052" opacity="1.000000" stroke="none" 
	d="
M1656.813232,373.072571 
	C1656.961914,373.228821 1656.869751,373.460175 1656.578125,373.795776 
	C1656.338989,373.631226 1656.403442,373.380432 1656.813232,373.072571 
z"/>
<path fill="#049E50" opacity="1.000000" stroke="none" 
	d="
M1811.153076,182.474060 
	C1811.309204,182.656784 1810.854248,182.767700 1810.854248,182.767700 
	C1810.854248,182.767700 1810.403320,182.641647 1810.231934,182.483795 
	C1810.367432,182.169998 1810.679443,182.158463 1811.153076,182.474060 
z"/>
<path fill="#FDFEFE" opacity="1.000000" stroke="none" 
	d="
M390.426483,390.608398 
	C379.865295,381.268219 376.612335,368.908966 376.280304,356.141083 
	C375.605316,330.186523 375.379120,304.181976 376.207642,278.237610 
	C377.017609,252.873260 392.026672,238.613968 418.646545,236.125336 
	C426.924438,235.351456 435.263580,234.915085 443.576385,234.890472 
	C472.067352,234.806091 500.569153,234.566162 529.044800,235.273071 
	C538.539429,235.508789 548.218689,237.573349 557.365845,240.302429 
	C570.077271,244.094910 577.373291,253.674255 579.987976,266.561951 
	C581.275696,272.909485 582.609863,279.394897 582.640564,285.824036 
	C582.758179,310.469635 582.396790,335.118195 582.094666,359.764221 
	C582.058289,362.734863 581.418152,365.720886 580.845398,368.658386 
	C577.638489,385.107147 567.827454,395.462769 551.467529,398.832703 
	C542.713806,400.635864 533.696045,401.904907 524.778381,402.027008 
	C495.958344,402.421814 467.128082,402.333984 438.304932,402.076324 
	C429.507812,401.997650 420.697754,400.979614 411.936279,400.007019 
	C404.000092,399.126038 396.826813,396.100342 390.426483,390.608398 
z"/>
<path fill="#FEFDFB" opacity="1.000000" stroke="none" 
	d="
M1261.957275,353.003601 
	C1226.493042,353.003784 1191.520630,353.003784 1155.783569,353.003784 
	C1156.508911,351.112976 1156.910889,349.753815 1157.528442,348.500824 
	C1174.531616,313.995117 1191.502808,279.473297 1208.695435,245.062164 
	C1209.883179,242.684875 1212.575684,239.938705 1214.889771,239.607132 
	C1216.671753,239.351776 1219.828735,242.199081 1220.891479,244.387085 
	C1237.756470,279.102966 1254.384399,313.934021 1271.048706,348.747314 
	C1271.536987,349.767365 1271.831055,350.880463 1272.594238,353.003448 
	C1268.864990,353.003448 1265.657227,353.003448 1261.957275,353.003601 
z"/>
<path fill="#05A052" opacity="1.000000" stroke="none" 
	d="
M1590.600098,410.000793 
	C1590.159058,412.764191 1588.809326,412.674347 1587.061035,410.346405 
	C1588.066650,410.000122 1589.133423,410.000275 1590.600098,410.000793 
z"/>
<path fill="#05A052" opacity="1.000000" stroke="none" 
	d="
M1697.020508,348.335815 
	C1697.541138,350.179047 1697.712280,351.872345 1698.002808,354.746185 
	C1695.007324,353.512512 1693.073364,352.716064 1691.139526,351.919617 
	C1691.127197,351.474243 1691.114990,351.028870 1691.102783,350.583496 
	C1692.958862,349.784302 1694.814941,348.985077 1697.020508,348.335815 
z"/>
<path fill="#FBFCFC" opacity="1.000000" stroke="none" 
	d="
M1995.602417,247.646210 
	C1950.096924,283.711945 1883.989990,264.560730 1863.957275,209.815643 
	C1851.580200,175.991882 1864.932373,134.699173 1894.092285,113.659416 
	C1926.532227,90.253021 1969.487915,93.510246 1996.632324,116.351936 
	C2037.651123,150.868500 2037.379028,212.593887 1995.602417,247.646210 
M1955.755615,221.161499 
	C1961.483521,217.414291 1967.211426,213.667099 1973.541138,209.618073 
	C1975.997314,205.132019 1978.284058,200.540039 1980.992798,196.212097 
	C1982.077637,194.478790 1983.862793,192.735596 1985.723145,192.017075 
	C1992.210938,189.511368 1998.870972,187.451599 2006.161987,185.168015 
	C2007.882080,184.267868 2009.602173,183.367722 2012.660156,181.767426 
	C2003.693115,178.806503 1996.354858,176.383438 1988.327393,173.720917 
	C1983.845337,172.504288 1981.621216,169.366623 1979.738770,165.213943 
	C1977.874634,161.101578 1974.716431,157.575851 1971.832031,153.190262 
	C1967.115601,150.427750 1962.260864,147.869522 1957.743408,144.812897 
	C1955.615356,143.372971 1953.398682,141.261963 1952.502686,138.957245 
	C1950.040649,132.623932 1948.255981,126.027321 1946.194336,118.830803 
	C1945.370728,116.878418 1944.546997,114.926033 1943.723267,112.973640 
	C1943.145264,113.025352 1942.567139,113.077072 1941.989136,113.128784 
	C1940.418945,118.079956 1938.848877,123.031120 1936.927490,128.664352 
	C1936.248169,130.859222 1935.320312,133.011841 1934.938843,135.257294 
	C1933.999756,140.784821 1930.918457,144.101334 1925.774780,146.346451 
	C1922.273926,147.874557 1919.338379,150.698151 1915.542480,153.281540 
	C1912.302002,158.726440 1909.061523,164.171341 1905.208130,170.009277 
	C1903.475342,170.878738 1901.813721,171.954163 1899.997192,172.580734 
	C1893.347656,174.874466 1886.646606,177.018814 1879.269165,179.238785 
	C1877.552246,179.964798 1875.835327,180.690826 1874.118408,181.416840 
	C1874.092773,181.973755 1874.067017,182.530685 1874.041260,183.087601 
	C1883.826172,186.167801 1893.610962,189.248001 1903.744019,192.761856 
	C1904.091431,192.884094 1904.438721,193.006332 1904.946167,193.865402 
	C1907.164551,200.872955 1909.723999,207.677841 1916.243774,212.886383 
	C1919.113281,214.658310 1921.982666,216.430237 1925.261841,218.746002 
	C1930.865723,220.929810 1934.263550,224.439545 1935.121094,230.929352 
	C1935.845581,236.410629 1938.274780,241.666626 1939.958618,247.741821 
	C1941.723022,248.564285 1939.322144,254.783966 1944.914062,250.693069 
	C1947.950195,241.157257 1950.986206,231.621445 1954.463501,221.985657 
	C1954.774292,221.880203 1954.968750,221.668137 1955.755615,221.161499 
z"/>
<path fill="#039E4F" opacity="1.000000" stroke="none" 
	d="
M1594.643555,423.035919 
	C1597.722778,422.216766 1600.445557,421.433533 1603.168457,420.650330 
	C1603.420410,421.214844 1603.672363,421.779388 1603.924316,422.343933 
	C1602.320068,423.664276 1600.715820,424.984589 1599.055786,426.652466 
	C1597.593872,427.266388 1596.196411,427.669067 1594.779053,427.759277 
	C1593.463867,427.842987 1592.127441,427.593079 1590.800293,427.490051 
	C1591.504395,426.179413 1592.152954,424.833466 1592.950317,423.582336 
	C1593.156128,423.259308 1593.828857,423.233948 1594.643555,423.035919 
z"/>
<path fill="#049E50" opacity="1.000000" stroke="none" 
	d="
M1663.279053,399.288635 
	C1667.856201,397.489868 1672.712280,395.979736 1677.784180,394.734802 
	C1674.050537,399.253510 1669.376099,401.219513 1663.279053,399.288635 
z"/>
<path fill="#F7F8FA" opacity="1.000000" stroke="none" 
	d="
M1304.812256,542.300720 
	C1306.945435,542.331665 1308.621826,542.231506 1310.263916,542.424744 
	C1318.004761,543.335876 1322.316650,547.878967 1322.355591,555.048950 
	C1322.397461,562.759766 1317.884399,568.261658 1310.175659,568.797302 
	C1303.260864,569.277832 1296.286255,568.898499 1288.969971,568.898499 
	C1288.969971,560.158386 1288.969971,551.612427 1288.969971,542.304810 
	C1294.152466,542.304810 1299.246216,542.304810 1304.812256,542.300720 
z"/>
<path fill="#F0680A" opacity="1.000000" stroke="none" 
	d="
M2005.465576,185.222351 
	C1998.870972,187.451599 1992.210938,189.511368 1985.723145,192.017075 
	C1983.862793,192.735596 1982.077637,194.478790 1980.992798,196.212097 
	C1978.284058,200.540039 1975.997314,205.132019 1972.950928,209.619843 
	C1967.877197,205.413239 1963.393555,201.204880 1958.729004,196.731598 
	C1956.024536,194.321945 1953.500977,192.177216 1950.843628,189.751221 
	C1949.771362,188.360107 1948.832764,187.250229 1948.096436,185.782745 
	C1948.975708,184.977249 1949.616821,184.211823 1950.335327,184.130753 
	C1957.225220,183.353302 1964.116821,182.530807 1971.030640,182.038544 
	C1978.957764,181.474106 1986.941772,181.550797 1994.834229,180.716537 
	C1998.827881,180.294388 2002.665283,178.438919 2003.733276,184.438660 
	C2003.796265,184.791458 2004.864990,184.965240 2005.465576,185.222351 
z"/>
<path fill="#B47219" opacity="1.000000" stroke="none" 
	d="
M1946.203247,119.534897 
	C1948.255981,126.027321 1950.040649,132.623932 1952.502686,138.957245 
	C1953.398682,141.261963 1955.615356,143.372971 1957.743408,144.812897 
	C1962.260864,147.869522 1967.115601,150.427750 1971.825439,153.804840 
	C1968.940674,157.373291 1966.063721,160.328476 1963.183716,163.280624 
	C1958.746826,167.828629 1954.307861,172.374634 1949.569580,176.977432 
	C1948.514526,177.359604 1947.759766,177.685806 1947.004883,177.617874 
	C1945.619019,172.570557 1943.057373,167.975479 1946.849243,163.170242 
	C1947.255615,162.655182 1946.312256,161.074951 1946.154297,159.675659 
	C1946.961914,156.859863 1948.198608,154.335449 1948.106934,151.860214 
	C1947.997314,148.897888 1946.266357,146.001114 1946.122681,143.033096 
	C1945.941650,139.294861 1946.894775,135.514786 1946.918579,131.749985 
	C1946.944458,127.679970 1946.463257,123.606735 1946.203247,119.534897 
z"/>
<path fill="#05A052" opacity="1.000000" stroke="none" 
	d="
M1903.395874,192.328217 
	C1893.610962,189.248001 1883.826172,186.167801 1874.041260,183.087601 
	C1874.067017,182.530685 1874.092773,181.973755 1874.118408,181.416840 
	C1875.835327,180.690826 1877.552246,179.964798 1879.714600,179.580688 
	C1880.685425,180.270187 1881.168701,180.811447 1881.742432,180.936188 
	C1889.846191,182.697952 1897.493896,180.770447 1904.793213,177.512711 
	C1909.707642,175.319458 1914.243286,174.632965 1919.653442,176.145370 
	C1925.611572,177.811035 1931.974365,178.028885 1938.471924,178.937744 
	C1939.776367,179.985703 1940.769897,180.973358 1941.425293,182.013031 
	C1939.724121,182.933640 1938.438354,184.369385 1936.983643,184.568359 
	C1931.873901,185.267197 1926.607544,185.062592 1921.584961,186.096634 
	C1915.313721,187.387711 1908.358887,187.089035 1903.395874,192.328217 
z"/>
<path fill="#E32D25" opacity="1.000000" stroke="none" 
	d="
M1949.869873,176.921478 
	C1954.307861,172.374634 1958.746826,167.828629 1963.183716,163.280624 
	C1966.063721,160.328476 1968.940674,157.373291 1971.972412,154.106110 
	C1974.716431,157.575851 1977.874634,161.101578 1979.738770,165.213943 
	C1981.621216,169.366623 1983.845337,172.504288 1988.402832,174.140472 
	C1978.659424,175.707230 1968.855103,177.016357 1959.012695,177.903976 
	C1956.018921,178.173950 1952.920410,177.281525 1949.869873,176.921478 
z"/>
<path fill="#B9AA0A" opacity="1.000000" stroke="none" 
	d="
M1916.149902,152.942444 
	C1919.338379,150.698151 1922.273926,147.874557 1925.774780,146.346451 
	C1930.918457,144.101334 1933.999756,140.784821 1934.938843,135.257294 
	C1935.320312,133.011841 1936.248169,130.859222 1937.479004,128.344650 
	C1938.555176,129.275284 1939.460083,130.503723 1939.533569,131.779999 
	C1939.756592,135.658493 1940.052124,139.602829 1939.591553,143.433990 
	C1938.927612,148.955475 1942.692627,154.608612 1938.661255,160.134888 
	C1934.207886,161.540375 1930.098022,162.787582 1925.695923,163.869781 
	C1922.318970,160.117325 1919.234497,156.529877 1916.149902,152.942444 
z"/>
<path fill="#A9B513" opacity="1.000000" stroke="none" 
	d="
M1947.894043,186.140411 
	C1948.832764,187.250229 1949.771362,188.360107 1950.704834,190.064911 
	C1948.429321,194.837387 1946.547729,199.297226 1943.777344,203.111664 
	C1941.108154,206.786911 1942.505493,208.882843 1945.519775,210.674683 
	C1948.655396,212.538605 1950.533203,214.851440 1950.010498,218.673248 
	C1949.575439,221.853836 1951.677490,222.131210 1954.022217,222.085632 
	C1950.986206,231.621445 1947.950195,241.157257 1944.339111,250.729004 
	C1943.571289,249.836899 1943.281982,248.917267 1943.200439,247.979553 
	C1942.425049,239.059906 1948.255005,230.807404 1945.294067,221.401550 
	C1944.168579,217.826584 1943.101196,215.050674 1940.113037,213.080032 
	C1936.508057,210.702545 1935.216064,208.231232 1938.121826,204.131104 
	C1940.181519,201.224823 1941.791138,197.729660 1942.547607,194.267090 
	C1943.029053,192.063324 1941.582153,189.438232 1941.000244,186.651672 
	C1940.980347,185.834534 1940.960083,185.367828 1941.060059,184.646500 
	C1941.504028,183.937759 1941.827759,183.483612 1942.430054,183.021973 
	C1943.078491,183.015457 1943.448364,183.016449 1944.015869,183.283371 
	C1945.440430,184.413025 1946.667236,185.276749 1947.894043,186.140411 
z"/>
<path fill="#E74F14" opacity="1.000000" stroke="none" 
	d="
M1948.096436,185.782791 
	C1946.667236,185.276749 1945.440430,184.413025 1944.104492,182.947723 
	C1944.998535,180.901428 1946.001709,179.456696 1947.004883,178.011993 
	C1947.759766,177.685806 1948.514526,177.359604 1949.569580,176.977448 
	C1952.920410,177.281525 1956.018921,178.173950 1959.012695,177.903976 
	C1968.855103,177.016357 1978.659424,175.707230 1988.747559,174.260223 
	C1996.354858,176.383438 2003.693115,178.806503 2012.660156,181.767426 
	C2009.602173,183.367722 2007.882080,184.267868 2005.813721,185.195175 
	C2004.864990,184.965240 2003.796265,184.791458 2003.733276,184.438660 
	C2002.665283,178.438919 1998.827881,180.294388 1994.834229,180.716537 
	C1986.941772,181.550797 1978.957764,181.474106 1971.030640,182.038544 
	C1964.116821,182.530807 1957.225220,183.353302 1950.335327,184.130753 
	C1949.616821,184.211823 1948.975708,184.977249 1948.096436,185.782791 
z"/>
<path fill="#BC920C" opacity="1.000000" stroke="none" 
	d="
M1939.004883,159.976624 
	C1942.692627,154.608612 1938.927612,148.955475 1939.591553,143.433990 
	C1940.052124,139.602829 1939.756592,135.658493 1939.533569,131.779999 
	C1939.460083,130.503723 1938.555176,129.275284 1937.654541,128.003616 
	C1938.848877,123.031120 1940.418945,118.079956 1941.989136,113.128784 
	C1942.567139,113.077072 1943.145264,113.025352 1943.723267,112.973640 
	C1944.546997,114.926033 1945.370728,116.878418 1946.198730,119.182854 
	C1946.463257,123.606735 1946.944458,127.679970 1946.918579,131.749985 
	C1946.894775,135.514786 1945.941650,139.294861 1946.122681,143.033096 
	C1946.266357,146.001114 1947.997314,148.897888 1948.106934,151.860214 
	C1948.198608,154.335449 1946.961914,156.859863 1945.717529,159.681290 
	C1943.082642,159.992264 1941.043823,159.984436 1939.004883,159.976624 
z"/>
<path fill="#46A837" opacity="1.000000" stroke="none" 
	d="
M1915.846191,153.111984 
	C1919.234497,156.529877 1922.318970,160.117325 1925.830078,164.175354 
	C1929.501587,168.430954 1932.746582,172.216003 1935.579834,175.992126 
	C1931.062256,175.032990 1926.973633,173.999039 1922.845337,173.159103 
	C1919.563965,172.491470 1916.216064,172.152634 1912.932251,171.494904 
	C1910.532715,171.014297 1908.189453,170.252640 1905.821167,169.616241 
	C1909.061523,164.171341 1912.302002,158.726440 1915.846191,153.111984 
z"/>
<path fill="#72AA22" opacity="1.000000" stroke="none" 
	d="
M1940.939819,184.901093 
	C1940.960083,185.367828 1940.980347,185.834534 1940.709717,186.924255 
	C1940.462036,193.570450 1938.503540,198.745682 1934.343018,203.209351 
	C1932.924683,204.731110 1931.847656,206.829910 1931.340576,208.847443 
	C1931.021606,210.117188 1931.671143,212.682434 1932.537476,213.026443 
	C1937.983765,215.189087 1940.643921,218.859787 1940.488037,224.760208 
	C1940.456299,225.960861 1941.595703,227.149246 1941.879150,228.414124 
	C1942.137451,229.567978 1942.479248,231.218185 1941.900391,231.959106 
	C1938.657349,236.110077 1938.558716,240.336639 1940.746460,244.924255 
	C1940.968994,245.390778 1940.238037,246.312027 1939.949585,247.022308 
	C1938.274780,241.666626 1935.845581,236.410629 1935.121094,230.929352 
	C1934.263550,224.439545 1930.865723,220.929810 1925.229248,218.102051 
	C1925.926636,210.191864 1928.778076,204.091354 1933.892334,198.677338 
	C1935.848755,196.606247 1935.898438,192.734192 1936.822754,189.513977 
	C1936.828247,189.345078 1936.823486,189.007126 1937.074341,188.791046 
	C1938.530029,187.350342 1939.734985,186.125717 1940.939819,184.901093 
z"/>
<path fill="#087EA0" opacity="1.000000" stroke="none" 
	d="
M1936.823486,189.007141 
	C1936.823486,189.007126 1936.828247,189.345078 1936.501465,189.630096 
	C1929.421509,197.384888 1922.668579,204.854630 1915.915527,212.324371 
	C1909.723999,207.677841 1907.164551,200.872955 1905.241455,193.594543 
	C1914.722046,197.092575 1922.827148,193.617752 1930.971191,189.741943 
	C1932.656738,188.939743 1934.859253,189.223755 1936.823486,189.007141 
z"/>
<path fill="#8AAE18" opacity="1.000000" stroke="none" 
	d="
M1939.954102,247.382050 
	C1940.238037,246.312027 1940.968994,245.390778 1940.746460,244.924255 
	C1938.558716,240.336639 1938.657349,236.110077 1941.900391,231.959106 
	C1942.479248,231.218185 1942.137451,229.567978 1941.879150,228.414124 
	C1941.595703,227.149246 1940.456299,225.960861 1940.488037,224.760208 
	C1940.643921,218.859787 1937.983765,215.189087 1932.537476,213.026443 
	C1931.671143,212.682434 1931.021606,210.117188 1931.340576,208.847443 
	C1931.847656,206.829910 1932.924683,204.731110 1934.343018,203.209351 
	C1938.503540,198.745682 1940.462036,193.570450 1940.709473,187.274689 
	C1941.582153,189.438232 1943.029053,192.063324 1942.547607,194.267090 
	C1941.791138,197.729660 1940.181519,201.224823 1938.121826,204.131104 
	C1935.216064,208.231232 1936.508057,210.702545 1940.113037,213.080032 
	C1943.101196,215.050674 1944.168579,217.826584 1945.294067,221.401550 
	C1948.255005,230.807404 1942.425049,239.059906 1943.200439,247.979553 
	C1943.281982,248.917267 1943.571289,249.836899 1944.116699,250.993927 
	C1939.322144,254.783966 1941.723022,248.564285 1939.954102,247.382050 
z"/>
<path fill="#29A843" opacity="1.000000" stroke="none" 
	d="
M1905.514648,169.812775 
	C1908.189453,170.252640 1910.532715,171.014297 1912.932251,171.494904 
	C1916.216064,172.152634 1919.563965,172.491470 1922.845337,173.159103 
	C1926.973633,173.999039 1931.062256,175.032990 1935.723389,176.257568 
	C1936.906006,177.313751 1937.533447,178.095612 1938.160889,178.877457 
	C1931.974365,178.028885 1925.611572,177.811035 1919.653442,176.145370 
	C1914.243286,174.632965 1909.707642,175.319458 1904.793213,177.512711 
	C1897.493896,180.770447 1889.846191,182.697952 1881.742432,180.936188 
	C1881.168701,180.811447 1880.685425,180.270187 1880.062500,179.571014 
	C1886.646606,177.018814 1893.347656,174.874466 1899.997192,172.580734 
	C1901.813721,171.954163 1903.475342,170.878738 1905.514648,169.812775 
z"/>
<path fill="#F2AF04" opacity="1.000000" stroke="none" 
	d="
M1958.909912,196.996490 
	C1963.393555,201.204880 1967.877197,205.413239 1972.650024,209.770752 
	C1967.211426,213.667099 1961.483521,217.414291 1955.376953,220.789368 
	C1954.524902,217.384018 1954.807129,213.925003 1953.395874,211.420197 
	C1951.421387,207.916229 1952.653320,206.254883 1954.962036,203.858948 
	C1956.738647,202.015244 1957.626831,199.315536 1958.909912,196.996490 
z"/>
<path fill="#B9AA0A" opacity="1.000000" stroke="none" 
	d="
M1958.729004,196.731567 
	C1957.626831,199.315536 1956.738647,202.015244 1954.962036,203.858948 
	C1952.653320,206.254883 1951.421387,207.916229 1953.395874,211.420197 
	C1954.807129,213.925003 1954.524902,217.384018 1955.022461,220.883331 
	C1954.968750,221.668137 1954.774292,221.880203 1954.242920,222.035645 
	C1951.677490,222.131210 1949.575439,221.853836 1950.010498,218.673248 
	C1950.533203,214.851440 1948.655396,212.538605 1945.519775,210.674683 
	C1942.505493,208.882843 1941.108154,206.786911 1943.777344,203.111664 
	C1946.547729,199.297226 1948.429321,194.837387 1950.838501,190.346161 
	C1953.500977,192.177216 1956.024536,194.321945 1958.729004,196.731567 
z"/>
<path fill="#048F8C" opacity="1.000000" stroke="none" 
	d="
M1937.074341,188.791046 
	C1934.859253,189.223755 1932.656738,188.939743 1930.971191,189.741943 
	C1922.827148,193.617752 1914.722046,197.092575 1905.161377,193.226120 
	C1904.438721,193.006332 1904.091431,192.884094 1903.569946,192.545044 
	C1908.358887,187.089035 1915.313721,187.387711 1921.584961,186.096634 
	C1926.607544,185.062592 1931.873901,185.267197 1936.983643,184.568359 
	C1938.438354,184.369385 1939.724121,182.933640 1941.521484,182.281036 
	C1942.020996,182.674515 1942.086182,182.852005 1942.151489,183.029480 
	C1941.827759,183.483612 1941.504028,183.937759 1941.060059,184.646484 
	C1939.734985,186.125717 1938.530029,187.350342 1937.074341,188.791046 
z"/>
<path fill="#46A837" opacity="1.000000" stroke="none" 
	d="
M1916.079590,212.605377 
	C1922.668579,204.854630 1929.421509,197.384888 1936.495850,189.799011 
	C1935.898438,192.734192 1935.848755,196.606247 1933.892334,198.677338 
	C1928.778076,204.091354 1925.926636,210.191864 1925.024414,217.830124 
	C1921.982666,216.430237 1919.113281,214.658310 1916.079590,212.605377 
z"/>
<path fill="#929014" opacity="1.000000" stroke="none" 
	d="
M1942.430054,183.021988 
	C1942.086182,182.852005 1942.020996,182.674515 1941.859619,182.229019 
	C1940.769897,180.973358 1939.776367,179.985703 1938.471924,178.937744 
	C1937.533447,178.095612 1936.906006,177.313751 1936.135132,176.266479 
	C1932.746582,172.216003 1929.501587,168.430954 1926.122314,164.340363 
	C1930.098022,162.787582 1934.207886,161.540375 1938.661255,160.134888 
	C1941.043823,159.984436 1943.082642,159.992264 1945.558350,159.994446 
	C1946.312256,161.074951 1947.255615,162.655182 1946.849243,163.170242 
	C1943.057373,167.975479 1945.619019,172.570557 1947.004883,177.617859 
	C1946.001709,179.456696 1944.998535,180.901428 1943.906738,182.681793 
	C1943.448364,183.016449 1943.078491,183.015457 1942.430054,183.021988 
z"/>
</svg>